<svg width="360" height="90" viewBox="0 0 360 90" fill="none" xmlns="http://www.w3.org/2000/svg">
<rect width="360" height="90" fill="#009C4F"/>
<path d="M40 9.99994C45.2529 9.99994 50.4543 11.0346 55.3074 13.0448C60.1604 15.0549 64.57 18.0013 68.2843 21.7157C71.9987 25.43 74.945 29.8396 76.9552 34.6926C78.9654 39.5456 80.0001 44.7471 80.0001 50L68 50C68 46.323 67.2758 42.6819 65.8687 39.2848C64.4615 35.8877 62.3991 32.801 59.799 30.201C57.199 27.6009 54.1123 25.5385 50.7152 24.1313C47.3181 22.7242 43.677 21.9999 40 21.9999L40 9.99994Z" fill="#78C348"/>
<path d="M40.0001 50C40.0001 55.2529 38.9654 60.4544 36.9552 65.3074C34.9451 70.1604 31.9987 74.57 28.2843 78.2843C24.57 81.9987 20.1604 84.9451 15.3074 86.9552C10.4544 88.9654 5.25291 90.0001 2.87691e-05 90.0001L3.05176e-05 50H40.0001Z" fill="#064B50"/>
<path d="M120 50C120 55.2529 118.965 60.4544 116.955 65.3074C114.945 70.1604 111.999 74.57 108.284 78.2843C104.57 81.9987 100.16 84.9451 95.3074 86.9552C90.4544 88.9654 85.2529 90.0001 80 90.0001L80 50H120Z" fill="#11871E"/>
<rect x="40" y="50" width="40" height="40" fill="#064B50"/>
<path d="M39.9999 90C39.9999 84.7471 41.0346 79.5456 43.0448 74.6926C45.055 69.8396 48.0013 65.43 51.7157 61.7157C55.43 58.0013 59.8396 55.0549 64.6926 53.0448C69.5457 51.0346 74.7471 49.9999 80 49.9999L80 90L39.9999 90Z" fill="#11871E"/>
<path d="M-5.75382e-05 50C-5.7079e-05 44.7471 1.03457 39.5456 3.04476 34.6926C5.05496 29.8396 8.00134 25.43 11.7157 21.7157C15.43 18.0013 19.8396 15.0549 24.6926 13.0448C29.5457 11.0346 34.7471 9.99993 40 9.99994L40 50L-5.75382e-05 50Z" fill="#8FB414"/>
<path d="M80.0263 30.0005C80.0408 18.9545 89.007 10 100.052 10C103.814 9.99928 107.498 11.0594 110.682 13.0587C113.866 15.0581 116.42 17.9155 118.052 21.3029C116.499 18.8597 114.417 16.7972 111.959 15.2674C109.502 13.7375 106.731 12.7795 103.852 12.4641C100.973 12.1486 98.0594 12.4837 95.3255 13.4446C92.5917 14.4055 90.1077 15.9677 88.0568 18.0159C86.0059 20.0642 84.4406 22.5462 83.4762 25.2788C82.5118 28.0114 82.173 30.9249 82.4848 33.8043C82.7966 36.6837 83.7511 39.4554 85.2778 41.915C86.8044 44.3746 88.8644 46.4594 91.3055 48.0153C87.9202 46.3794 85.0661 43.8213 83.0709 40.6347C81.0758 37.4482 80.0205 33.7623 80.0263 30.0005V30.0005Z" fill="#BECD4D"/>
<path d="M82.3707 31.6937C82.3769 27.5067 83.7411 23.433 86.2584 20.084C88.7758 16.7351 92.3105 14.2917 96.3319 13.1206C100.353 11.9495 104.644 12.114 108.561 13.5894C112.477 15.0648 115.808 17.7714 118.052 21.3029C119.36 24.0145 120.035 26.9884 120.027 30.0005C120.012 41.0455 111.046 50 99.9998 50C96.9864 50.0051 94.012 49.3265 91.3006 48.0153C88.5579 46.2679 86.3015 43.8559 84.7405 41.0027C83.1795 38.1496 82.3644 34.9477 82.3707 31.6937V31.6937Z" fill="#98B833"/>
<path d="M86.8803 20.183C86.231 19.4433 86.6857 17.9821 87.896 16.9193C89.1064 15.8565 90.6139 15.5945 91.2632 16.3342C91.9126 17.0739 91.4578 18.5352 90.2475 19.598C89.0372 20.6608 87.5296 20.9227 86.8803 20.183Z" fill="#BECD4D"/>
<path d="M92.2867 17.5357C91.9508 17.1531 92.186 16.3972 92.812 15.8474C93.4381 15.2977 94.2179 15.1622 94.5539 15.5449C94.8898 15.9276 94.6546 16.6835 94.0285 17.2332C93.4025 17.783 92.6226 17.9184 92.2867 17.5357Z" fill="#BECD4D"/>
<path d="M91.5857 19.0522C91.4631 18.9126 91.5491 18.6368 91.7776 18.436C92.0062 18.2353 92.2908 18.1858 92.4134 18.3254C92.5359 18.465 92.45 18.7408 92.2214 18.9415C91.9928 19.1423 91.7082 19.1918 91.5857 19.0522Z" fill="#BECD4D"/>
<path d="M107.684 35.8222C108.973 37.4294 110.99 37.6905 112.696 37.29C119.562 35.6713 119.819 28.3911 116.474 25.0739C115.598 24.1887 114.459 23.6094 113.227 23.4217C110.233 22.9645 107.122 24.4271 106.509 29.5706C106.158 32.5973 106.705 34.5956 107.684 35.8222Z" fill="white"/>
<path d="M92.8669 34.5464C94.1232 35.8527 96.0385 36.8225 98.6999 37.1538C101.699 37.5312 105.306 36.4021 105.821 31.9726C105.915 31.1182 105.911 30.2561 105.809 29.4029C105.803 29.3452 105.795 29.2876 105.789 29.2289C105.515 26.9444 104.65 25.3718 103.456 24.3548C102.039 23.1512 100.143 22.7224 98.2082 22.8482C91.9109 23.2582 88.8727 30.3737 92.8669 34.5464Z" fill="white"/>
<path d="M108.851 31.4086C108.85 32.7118 109.648 33.7549 110.631 33.7371C111.613 33.7193 112.376 32.6677 112.377 31.3876C112.379 30.1075 111.601 29.0654 110.634 29.0591C110.396 29.0579 110.162 29.1178 109.954 29.2331C110.099 29.258 110.235 29.3202 110.348 29.4137C110.462 29.5073 110.549 29.6288 110.601 29.7663C110.653 29.9038 110.668 30.0525 110.645 30.1978C110.622 30.3431 110.561 30.4799 110.469 30.5946C110.377 30.7094 110.256 30.7981 110.119 30.8521C109.982 30.906 109.834 30.9234 109.688 30.9023C109.543 30.8813 109.405 30.8226 109.289 30.7322C109.174 30.6417 109.083 30.5225 109.028 30.3864C108.909 30.7141 108.85 31.0602 108.851 31.4086V31.4086Z" fill="#2D2D26"/>
<path d="M99.5584 31.4598C99.5566 32.8227 100.436 33.9204 101.512 33.9015C102.587 33.8827 103.431 32.7787 103.432 31.4388C103.434 30.099 102.582 29.0044 101.518 28.9971C101.258 28.9961 101.001 29.0591 100.771 29.1806C100.998 29.2097 101.204 29.3255 101.347 29.5037C101.49 29.682 101.558 29.9087 101.538 30.1364C101.517 30.364 101.409 30.5749 101.236 30.7247C101.063 30.8745 100.839 30.9516 100.611 30.9398C100.429 30.9421 100.252 30.8911 100.099 30.7933C99.9465 30.6955 99.8261 30.555 99.7527 30.3894C99.6238 30.7316 99.5579 31.0943 99.5584 31.4598Z" fill="#2D2D26"/>
<path d="M96.2043 36.575C96.2043 36.575 95.577 35.2194 93.7559 35.2173C91.8489 35.2173 91.7784 36.965 91.7784 36.965" fill="#98B833"/>
<path d="M96.281 36.5373C96.1015 36.0327 95.7507 35.6071 95.2897 35.3347C94.8312 35.0639 94.3059 34.9266 93.7732 34.9384C93.5036 34.9376 93.2356 34.9801 92.9793 35.0643C92.713 35.1477 92.4695 35.2915 92.2678 35.4845C92.066 35.6774 91.9115 35.9143 91.8162 36.1766C91.7218 36.4273 91.6794 36.6944 91.6915 36.9619C91.692 36.9732 91.6948 36.9843 91.6996 36.9945C91.7044 37.0047 91.7112 37.0139 91.7195 37.0215C91.7279 37.0291 91.7377 37.0349 91.7483 37.0387C91.759 37.0426 91.7703 37.0442 91.7816 37.0437C91.7999 37.0425 91.8174 37.0355 91.8314 37.0236C91.8454 37.0116 91.8552 36.9955 91.8592 36.9776L91.8592 36.9682C91.9647 36.5121 92.2053 36.0823 92.5474 35.8317C92.8896 35.5811 93.3195 35.4857 93.764 35.4972C94.2089 35.5001 94.648 35.5962 95.0532 35.7793C95.4692 35.9737 95.8353 36.2606 96.1236 36.618L96.1309 36.6274C96.138 36.6361 96.1467 36.6432 96.1566 36.6484C96.1665 36.6537 96.1773 36.6569 96.1884 36.6578C96.1996 36.6588 96.2108 36.6576 96.2214 36.6541C96.2321 36.6507 96.2419 36.6452 96.2504 36.6379C96.2655 36.6265 96.2766 36.6107 96.2821 36.5926C96.2876 36.5745 96.2872 36.5551 96.281 36.5373V36.5373Z" fill="#BECD4D"/>
<path d="M95.0786 37.179C94.9586 37.0771 94.8193 37.0005 94.669 36.9536C94.5123 36.9029 94.3466 36.8854 94.1826 36.9022C94.0015 36.9203 93.8301 36.9935 93.6917 37.1119C93.6239 37.1739 93.5713 37.2508 93.5381 37.3364C93.5049 37.4221 93.4919 37.5142 93.5002 37.6057C93.5023 37.6314 93.5145 37.6552 93.5342 37.6719C93.5538 37.6886 93.5792 37.6968 93.605 37.6948C93.6158 37.6937 93.6264 37.6908 93.6364 37.6864L93.6522 37.6791C93.8022 37.6078 93.8872 37.5459 93.9795 37.5061C94.0676 37.458 94.1608 37.42 94.2575 37.3929C94.5062 37.3484 94.7588 37.3298 95.0113 37.3373L95.0197 37.3373C95.0316 37.337 95.0432 37.3344 95.0541 37.3296C95.0649 37.3248 95.0747 37.318 95.0829 37.3094C95.0911 37.3008 95.0975 37.2907 95.1018 37.2797C95.1061 37.2687 95.1082 37.2569 95.1079 37.245C95.1078 37.2326 95.1051 37.2203 95.1001 37.209C95.0951 37.1976 95.0878 37.1874 95.0786 37.179V37.179Z" fill="#2D2D26"/>
<path d="M112.869 40.972C112.088 41.3475 111.274 41.6517 110.438 41.881C109.61 42.1123 108.766 42.2816 107.913 42.3874C107.493 42.4408 107.062 42.4744 106.636 42.4922C106.209 42.51 105.783 42.5153 105.357 42.5069C104.506 42.4773 103.659 42.3865 102.821 42.2354C101.142 41.9331 99.5268 41.353 98.0401 40.5191C97.6661 40.3094 97.3005 40.0861 96.9454 39.8439C96.5903 39.6018 96.2394 39.3522 95.9053 39.0786C95.5666 38.8084 95.2426 38.5204 94.9346 38.2158C94.7786 38.0648 94.6299 37.9065 94.4886 37.7429C94.3444 37.5821 94.2128 37.4103 94.095 37.2292V37.2292C94.089 37.2197 94.0811 37.2115 94.0719 37.2051C94.0626 37.1986 94.0522 37.1941 94.0411 37.1918C94.0301 37.1895 94.0187 37.1893 94.0076 37.1914C93.9966 37.1935 93.986 37.1978 93.9766 37.204C93.9601 37.2153 93.9479 37.2317 93.942 37.2508C93.936 37.2698 93.9367 37.2903 93.944 37.3089C94.1243 37.7299 94.3596 38.1251 94.6438 38.4841C94.9196 38.844 95.2179 39.1861 95.5368 39.5084C95.8567 39.8286 96.1929 40.132 96.5441 40.4174C96.8981 40.697 97.2644 40.9619 97.6429 41.2121C99.1653 42.199 100.876 42.8607 102.666 43.1559C104.44 43.4728 106.256 43.4629 108.027 43.1265C108.468 43.0455 108.904 42.9405 109.334 42.812C109.764 42.6889 110.188 42.5444 110.604 42.379C111.02 42.2148 111.426 42.0283 111.822 41.8202C112.22 41.6154 112.602 41.3798 112.964 41.1157C112.983 41.1019 112.995 41.0814 112.999 41.0587C113.002 41.036 112.997 41.0128 112.984 40.994C112.972 40.9777 112.955 40.9659 112.936 40.9609C112.917 40.9559 112.897 40.958 112.879 40.9668L112.869 40.972Z" fill="#2D2D26"/>
<rect x="320.001" y="50" width="40" height="40" fill="#064B50"/>
<path d="M320.001 90C320.001 84.7471 321.036 79.5456 323.046 74.6926C325.056 69.8396 328.002 65.43 331.717 61.7157C335.431 58.0013 339.841 55.0549 344.694 53.0448C349.547 51.0346 354.748 49.9999 360.001 49.9999L360.001 90L320.001 90Z" fill="#A4C929"/>
<path fill-rule="evenodd" clip-rule="evenodd" d="M328.107 13.1726H351.808L352.12 19.4096L355.675 23.1521H356.045C357.15 23.1521 358.045 24.0475 358.045 25.1521V31.1312C358.045 32.2358 357.15 33.1312 356.045 33.1312H355.427V47.9234C355.427 48.4756 354.979 48.9234 354.427 48.9234H325.491C324.939 48.9234 324.491 48.4756 324.491 47.9234V33.1312H323.247C322.143 33.1312 321.247 32.2358 321.247 31.1312V25.1521C321.247 24.0475 322.143 23.1521 323.247 23.1521H324.739L328.107 19.4096V13.1726Z" fill="#009C4F"/>
<path fill-rule="evenodd" clip-rule="evenodd" d="M359.915 24.6598V24.7517C359.917 24.7863 359.917 24.821 359.915 24.8556V24.8876V29.1875C359.914 30.2482 359.534 31.2749 358.841 32.09C358.149 32.9051 357.188 33.4574 356.125 33.6513V47.2784C356.125 48.0001 355.832 48.6923 355.312 49.2027C354.791 49.7131 354.085 49.9998 353.349 49.9998H326.57C325.834 49.9998 325.128 49.7131 324.607 49.2027C324.087 48.6923 323.794 48.0001 323.794 47.2784V33.6513C322.731 33.4574 321.77 32.9051 321.077 32.09C320.385 31.2749 320.005 30.2482 320.004 29.1875V24.8876V24.8556C320.002 24.8196 320.002 24.7836 320.004 24.7477C320.004 24.7369 320.003 24.7265 320.002 24.7163C320 24.6963 319.998 24.6769 320.004 24.6558C320.008 24.6367 320.015 24.6176 320.021 24.5994C320.025 24.5871 320.029 24.5751 320.032 24.5639C320.04 24.5359 320.053 24.5039 320.065 24.4759C320.077 24.448 320.093 24.42 320.11 24.392L320.11 24.392C320.115 24.382 320.124 24.372 320.132 24.3621C320.147 24.3441 320.163 24.3261 320.163 24.3081L320.224 24.2362L320.297 24.1602L320.317 24.1363L326.709 18.6415V14.4295C326.71 13.7854 326.971 13.168 327.436 12.7126C327.9 12.2571 328.53 12.0008 329.187 11.9998H350.716C351.373 12.0008 352.002 12.2571 352.467 12.7126C352.932 13.168 353.193 13.7854 353.194 14.4295V18.6575L359.601 24.1363L359.622 24.1602L359.695 24.2362L359.756 24.3081C359.777 24.3361 359.793 24.364 359.809 24.3919L359.809 24.392C359.813 24.398 359.816 24.4038 359.82 24.4095C359.832 24.4306 359.844 24.4508 359.854 24.4759C359.858 24.4872 359.86 24.4985 359.862 24.5097C359.865 24.53 359.868 24.5498 359.887 24.5679C359.915 24.5958 359.915 24.6278 359.915 24.6598ZM328.877 14.1254C328.794 14.2061 328.748 14.3153 328.747 14.4295L328.738 18.11H351.156V14.4295C351.155 14.3153 351.108 14.2061 351.026 14.1254C350.944 14.0447 350.832 13.9989 350.716 13.9979H329.187C329.07 13.9989 328.959 14.0447 328.877 14.1254ZM351.792 20.1081H328.094L323.696 23.8885H356.19L351.792 20.1081ZM350.296 29.1875V25.8866H344.745V29.1875C344.746 29.8623 345.02 30.5092 345.506 30.9863C345.993 31.4635 346.653 31.732 347.341 31.7331H347.687C348.029 31.7341 348.368 31.6691 348.684 31.5417C349 31.4143 349.288 31.227 349.53 30.9906C349.772 30.7541 349.965 30.4732 350.096 30.1638C350.228 29.8544 350.295 29.5226 350.296 29.1875ZM342.715 29.1875V25.8866H337.171V29.1875C337.173 29.8623 337.446 30.5092 337.933 30.9863C338.42 31.4635 339.08 31.732 339.768 31.7331H340.118C340.807 31.732 341.466 31.4635 341.953 30.9863C342.44 30.5092 342.714 29.8623 342.715 29.1875ZM335.134 29.1875V25.8866H329.602V29.1875C329.604 29.8623 329.877 30.5092 330.364 30.9863C330.851 31.4635 331.511 31.732 332.199 31.7331H332.537C333.225 31.732 333.885 31.4635 334.372 30.9863C334.859 30.5092 335.132 29.8623 335.134 29.1875ZM322.771 30.9863C323.257 31.4635 323.917 31.732 324.605 31.7331H324.956C325.644 31.732 326.304 31.4635 326.791 30.9863C327.277 30.5092 327.551 29.8623 327.552 29.1875V25.8866H322.009V29.1875C322.01 29.8623 322.284 30.5092 322.771 30.9863ZM343.579 47.9977H348.735V38.5147H343.579V47.9977ZM353.871 47.7898C354.009 47.6542 354.087 47.4702 354.087 47.2784L354.074 33.6513C352.981 33.4515 351.997 32.8728 351.303 32.0208C350.87 32.5538 350.32 32.9844 349.694 33.2805C349.068 33.5766 348.382 33.7306 347.687 33.7312H347.357C346.662 33.7306 345.976 33.5766 345.351 33.2805C344.725 32.9844 344.175 32.5538 343.742 32.0208C343.309 32.5538 342.759 32.9844 342.133 33.2805C341.507 33.5766 340.822 33.7306 340.127 33.7312H339.776C339.081 33.7306 338.395 33.5766 337.769 33.2805C337.143 32.9844 336.594 32.5538 336.161 32.0208C335.728 32.5538 335.178 32.9844 334.552 33.2805C333.926 33.5766 333.24 33.7306 332.545 33.7312H332.199C331.502 33.7324 330.814 33.5793 330.185 33.2831C329.557 32.9869 329.005 32.5554 328.571 32.0208C327.877 32.8728 326.893 33.4515 325.8 33.6513V47.2744C325.8 47.4662 325.877 47.6502 326.016 47.7858C326.154 47.9215 326.342 47.9977 326.537 47.9977H341.541V37.5156C341.541 37.2506 341.648 36.9965 341.839 36.8092C342.03 36.6218 342.29 36.5166 342.56 36.5166H349.754C350.024 36.5166 350.283 36.6218 350.474 36.8092C350.666 36.9965 350.773 37.2506 350.773 37.5156V48.0017H353.349C353.545 48.0017 353.732 47.9255 353.871 47.7898ZM357.116 30.9863C357.602 30.5092 357.876 29.8623 357.877 29.1875V25.8866H352.338V29.1875C352.339 29.8623 352.613 30.5092 353.1 30.9863C353.586 31.4635 354.246 31.732 354.934 31.7331H355.281C355.969 31.732 356.629 31.4635 357.116 30.9863ZM330.132 36.5163H337.326C337.597 36.5163 337.856 36.6216 338.047 36.8089C338.238 36.9963 338.345 37.2504 338.345 37.5154V43.5337C338.345 43.7986 338.238 44.0527 338.047 44.2401C337.856 44.4275 337.597 44.5327 337.326 44.5327H330.132C329.862 44.5327 329.603 44.4275 329.412 44.2401C329.221 44.0527 329.113 43.7986 329.113 43.5337V37.5154C329.113 37.2504 329.221 36.9963 329.412 36.8089C329.603 36.6216 329.862 36.5163 330.132 36.5163ZM331.151 42.5306H336.307V38.5144H331.151V42.5306Z" fill="#064B50"/>
<path d="M280 90C280 84.7471 281.035 79.5456 283.045 74.6926C285.055 69.8396 288.001 65.43 291.716 61.7157C295.43 58.0013 299.84 55.0549 304.693 53.0448C309.546 51.0346 314.747 49.9999 320 49.9999L320 61.9999C316.323 61.9999 312.682 62.7242 309.285 64.1313C305.888 65.5385 302.801 67.6009 300.201 70.201C297.601 72.801 295.538 75.8877 294.131 79.2848C292.724 82.6819 292 86.3229 292 90L280 90Z" fill="#064B50"/>
</svg>
