<svg width="320" height="240" viewBox="0 0 320 240" fill="none" xmlns="http://www.w3.org/2000/svg">
<path d="M80 160C80 170.506 77.9307 180.909 73.9104 190.615C69.89 200.321 63.9972 209.14 56.5685 216.569C49.1399 223.997 40.3207 229.89 30.6147 233.91C20.9086 237.931 10.5057 240 -3.49691e-06 240L0 160H80Z" fill="#064B50"/>
<path d="M80 160C80 149.494 82.0693 139.091 86.0896 129.385C90.11 119.679 96.0028 110.86 103.431 103.431C110.86 96.0028 119.679 90.11 129.385 86.0896C139.091 82.0693 149.494 80 160 80L160 160L80 160Z" fill="#11871E"/>
<path d="M6.99382e-06 160C7.91226e-06 149.494 2.06927 139.091 6.08965 129.385C10.11 119.679 16.0028 110.86 23.4315 103.431C30.8602 96.0028 39.6793 90.11 49.3853 86.0896C59.0914 82.0693 69.4943 80 80 80L80 160L6.99382e-06 160Z" fill="#8FB414"/>
<path d="M160 240C160 229.494 162.069 219.091 166.09 209.385C170.11 199.679 176.003 190.86 183.431 183.431C190.86 176.003 199.679 170.11 209.385 166.09C219.091 162.069 229.494 160 240 160L240 240L160 240Z" fill="#8FB414"/>
<path d="M160 240C149.494 240 139.091 237.931 129.385 233.91C119.679 229.89 110.86 223.997 103.431 216.569C96.0028 209.14 90.11 200.321 86.0896 190.615C82.0693 180.909 80 170.506 80 160L104 160C104 167.354 105.448 174.636 108.263 181.43C111.077 188.224 115.202 194.398 120.402 199.598C125.602 204.798 131.775 208.923 138.57 211.737C145.364 214.552 152.646 216 160 216L160 240Z" fill="#11871E"/>
<path d="M240 160C250.506 160 260.909 162.069 270.615 166.09C280.321 170.11 289.14 176.003 296.569 183.431C303.997 190.86 309.89 199.679 313.91 209.385C317.931 219.091 320 229.494 320 240H296C296 232.646 294.552 225.364 291.737 218.57C288.923 211.775 284.798 205.602 279.598 200.402C274.398 195.202 268.225 191.077 261.43 188.263C254.636 185.448 247.354 184 240 184L240 160Z" fill="#78C348"/>
<path d="M80.0526 40.001C80.0817 17.9089 98.0141 -4.34641e-06 120.104 -2.41524e-06C127.628 -0.00144331 134.997 2.11886 141.364 6.11748C147.732 10.1161 152.841 15.8309 156.104 22.6058C152.998 17.7195 148.834 13.5943 143.919 10.5347C139.004 7.47507 133.462 5.55909 127.705 4.92812C121.947 4.29715 116.119 4.9673 110.651 6.88911C105.183 8.81093 100.215 11.9354 96.1137 16.0319C92.0119 20.1284 88.8812 25.0924 86.9524 30.5576C85.0236 36.0228 84.346 41.8498 84.9697 47.6085C85.5933 53.3673 87.5022 58.9108 90.5556 63.83C93.6089 68.7492 97.7288 72.9187 102.611 76.0306C95.8404 72.7588 90.1321 67.6426 86.1419 61.2694C82.1516 54.8963 80.0411 47.5247 80.0526 40.001V40.001Z" fill="#BECD4D"/>
<path d="M84.7415 43.3873C84.7538 35.0135 87.4822 26.866 92.5169 20.1681C97.5516 13.4702 104.621 8.58331 112.664 6.24119C120.707 3.89907 129.289 4.22808 137.122 7.17881C144.954 10.1295 151.616 15.5428 156.105 22.6058C158.72 28.029 160.07 33.9768 160.053 40.001C160.024 62.091 142.092 79.9999 120 79.9999C113.973 80.0102 108.024 78.653 102.601 76.0306C97.1158 72.5357 92.603 67.7117 89.481 62.0054C86.359 56.2992 84.7288 49.8954 84.7415 43.3873V43.3873Z" fill="#98B833"/>
<path d="M93.7606 20.3663C92.4619 18.8869 93.3715 15.9644 95.7921 13.8388C98.2127 11.7132 101.228 11.1893 102.526 12.6687C103.825 14.1481 102.916 17.0706 100.495 19.1962C98.0743 21.3218 95.0592 21.8457 93.7606 20.3663Z" fill="#BECD4D"/>
<path d="M104.573 15.0712C103.902 14.3059 104.372 12.7941 105.624 11.6946C106.876 10.5951 108.436 10.3242 109.108 11.0895C109.78 11.8549 109.309 13.3667 108.057 14.4662C106.805 15.5657 105.245 15.8366 104.573 15.0712Z" fill="#BECD4D"/>
<path d="M103.171 18.1047C102.926 17.8255 103.098 17.2737 103.555 16.8723C104.012 16.4709 104.582 16.3718 104.827 16.651C105.072 16.9302 104.9 17.4819 104.443 17.8833C103.986 18.2848 103.416 18.3838 103.171 18.1047Z" fill="#BECD4D"/>
<path d="M135.368 51.6447C137.945 54.8591 141.981 55.3812 145.391 54.5802C159.123 51.3428 159.637 36.7825 152.949 30.1481C151.195 28.3776 148.918 27.219 146.453 26.8436C140.466 25.9293 134.245 28.8544 133.017 39.1414C132.315 45.1949 133.411 49.1914 135.368 51.6447Z" fill="white"/>
<path d="M105.734 49.0928C108.246 51.7054 112.077 53.645 117.4 54.3076C123.398 55.0624 130.612 52.8041 131.643 43.9451C131.83 42.2364 131.822 40.5121 131.618 38.8058C131.605 38.6905 131.591 38.5751 131.578 38.4577C131.031 33.8888 129.301 30.7435 126.911 28.7096C124.077 26.3025 120.285 25.4449 116.416 25.6965C103.822 26.5163 97.7453 40.7474 105.734 49.0928Z" fill="white"/>
<path d="M137.703 42.8169C137.7 45.4233 139.297 47.5096 141.261 47.474C143.226 47.4383 144.751 45.3352 144.755 42.775C144.758 40.2148 143.203 38.1305 141.267 38.118C140.792 38.1156 140.324 38.2354 139.908 38.466C140.198 38.5157 140.47 38.6402 140.697 38.8272C140.923 39.0143 141.097 39.2573 141.201 39.5323C141.305 39.8073 141.336 40.1048 141.29 40.3954C141.243 40.6859 141.122 40.9595 140.938 41.189C140.753 41.4185 140.512 41.596 140.239 41.7039C139.965 41.8118 139.668 41.8465 139.377 41.8044C139.086 41.7624 138.811 41.645 138.579 41.4641C138.347 41.2831 138.167 41.0447 138.056 40.7725C137.819 41.428 137.699 42.1201 137.703 42.8169V42.8169Z" fill="#2D2D26"/>
<path d="M119.117 42.9198C119.113 45.6457 120.872 47.8411 123.023 47.8033C125.175 47.7656 126.861 45.5576 126.865 42.8779C126.868 40.1982 125.164 38.0091 123.036 37.9944C122.516 37.9924 122.003 38.1184 121.543 38.3614C121.996 38.4196 122.409 38.6513 122.695 39.0077C122.98 39.3642 123.117 39.8177 123.075 40.273C123.034 40.7283 122.817 41.15 122.472 41.4497C122.126 41.7493 121.678 41.9034 121.221 41.8798C120.859 41.8844 120.503 41.7825 120.198 41.5869C119.893 41.3912 119.652 41.1103 119.505 40.779C119.248 41.4634 119.116 42.1888 119.117 42.9198Z" fill="#2D2D26"/>
<path d="M112.409 53.1502C112.409 53.1502 111.154 50.439 107.512 50.4348C103.698 50.4348 103.557 53.9302 103.557 53.9302" fill="#98B833"/>
<path d="M112.562 53.0745C112.203 52.0653 111.501 51.2143 110.579 50.6695C109.662 50.1278 108.612 49.8533 107.546 49.8769C107.007 49.8752 106.471 49.9602 105.959 50.1285C105.426 50.2954 104.939 50.583 104.536 50.9689C104.132 51.3548 103.823 51.8286 103.633 52.3532C103.444 52.8545 103.359 53.3889 103.383 53.9238C103.384 53.9463 103.39 53.9685 103.399 53.989C103.409 54.0094 103.422 54.0278 103.439 54.0429C103.456 54.0581 103.475 54.0699 103.497 54.0775C103.518 54.0851 103.541 54.0884 103.563 54.0873C103.6 54.085 103.635 54.0709 103.663 54.0471C103.691 54.0233 103.71 53.9911 103.718 53.9552L103.718 53.9363C103.929 53.0242 104.411 52.1645 105.095 51.6634C105.779 51.1622 106.639 50.9714 107.528 50.9945C108.418 51.0003 109.296 51.1924 110.106 51.5585C110.938 51.9475 111.671 52.5212 112.247 53.236L112.262 53.2549C112.276 53.2722 112.293 53.2865 112.313 53.2969C112.333 53.3073 112.355 53.3137 112.377 53.3157C112.399 53.3176 112.422 53.3151 112.443 53.3083C112.464 53.3014 112.484 53.2904 112.501 53.2758C112.531 53.2531 112.553 53.2213 112.564 53.1851C112.575 53.1489 112.574 53.1102 112.562 53.0745V53.0745Z" fill="#BECD4D"/>
<path d="M110.157 54.358C109.917 54.1542 109.639 54.0009 109.338 53.9072C109.025 53.8057 108.693 53.7707 108.365 53.8044C108.003 53.8407 107.66 53.987 107.383 54.2238C107.248 54.3478 107.143 54.5015 107.076 54.6728C107.01 54.8442 106.984 55.0285 107 55.2114C107.005 55.2628 107.029 55.3104 107.068 55.3438C107.108 55.3772 107.158 55.3936 107.21 55.3896C107.232 55.3873 107.253 55.3816 107.273 55.3728L107.304 55.3581C107.604 55.2156 107.774 55.0918 107.959 55.0122C108.135 54.9159 108.322 54.84 108.515 54.7857C109.012 54.6969 109.518 54.6596 110.023 54.6746L110.039 54.6746C110.063 54.674 110.086 54.6688 110.108 54.6593C110.13 54.6497 110.149 54.636 110.166 54.6188C110.182 54.6017 110.195 54.5815 110.204 54.5594C110.212 54.5373 110.216 54.5137 110.216 54.4901C110.216 54.4652 110.21 54.4407 110.2 54.418C110.19 54.3952 110.176 54.3748 110.157 54.358V54.358Z" fill="#2D2D26"/>
<path d="M145.739 61.9443C144.175 62.6952 142.548 63.3037 140.876 63.7622C139.22 64.2249 137.531 64.5635 135.825 64.775C134.986 64.8819 134.124 64.949 133.271 64.9847C132.418 65.0203 131.566 65.0308 130.715 65.014C129.013 64.9548 127.317 64.7733 125.641 64.4709C122.285 63.8664 119.054 62.7063 116.08 61.0385C115.332 60.6191 114.601 60.1725 113.891 59.6881C113.181 59.2037 112.479 58.7047 111.811 58.1574C111.133 57.6171 110.485 57.0411 109.869 56.4318C109.557 56.1298 109.26 55.8132 108.977 55.4861C108.689 55.1644 108.426 54.8209 108.19 54.4587V54.4587C108.178 54.4396 108.162 54.4232 108.144 54.4104C108.125 54.3975 108.104 54.3885 108.082 54.3838C108.06 54.3791 108.037 54.3789 108.015 54.3831C107.993 54.3873 107.972 54.3959 107.953 54.4083C107.92 54.4308 107.896 54.4637 107.884 54.5018C107.872 54.5399 107.874 54.5809 107.888 54.618C108.249 55.46 108.719 56.2504 109.288 56.9685C109.839 57.6883 110.436 58.3725 111.074 59.0171C111.713 59.6574 112.386 60.2642 113.088 60.8351C113.796 61.3942 114.529 61.924 115.286 62.4245C118.331 64.3982 121.751 65.7217 125.333 66.3119C128.879 66.9459 132.513 66.926 136.054 66.2532C136.936 66.0912 137.808 65.8812 138.667 65.6242C139.528 65.3781 140.376 65.0891 141.208 64.7582C142.039 64.4299 142.852 64.0568 143.644 63.6406C144.441 63.231 145.205 62.7598 145.929 62.2315C145.966 62.204 145.99 62.1631 145.998 62.1176C146.005 62.0722 145.994 62.0258 145.967 61.9883C145.944 61.9556 145.911 61.932 145.872 61.922C145.834 61.912 145.793 61.9162 145.757 61.9338L145.739 61.9443Z" fill="#2D2D26"/>
<path fill-rule="evenodd" clip-rule="evenodd" d="M176.216 86.3457H223.617L224.24 98.8196L231.351 106.305H232.09C234.3 106.305 236.09 108.096 236.09 110.305V111.293L236.091 111.294H236.09V122.263C236.09 124.472 234.3 126.263 232.09 126.263H230.852V155.847C230.852 156.951 229.957 157.847 228.852 157.847H170.981C169.877 157.847 168.981 156.951 168.981 155.847V126.263H166.494C164.285 126.263 162.494 124.472 162.494 122.263V110.305C162.494 108.096 164.285 106.305 166.494 106.305H169.479L176.216 98.8196V86.3457Z" fill="#009C4F"/>
<path fill-rule="evenodd" clip-rule="evenodd" d="M239.83 109.32V109.504C239.834 109.573 239.834 109.642 239.83 109.712V109.776V118.375C239.827 120.497 239.067 122.55 237.683 124.18C236.298 125.811 234.376 126.915 232.249 127.303V154.557C232.249 156.001 231.664 157.385 230.623 158.406C229.582 159.427 228.17 160 226.698 160H173.14C171.668 160 170.256 159.427 169.214 158.406C168.173 157.385 167.588 156.001 167.588 154.557V127.303C165.461 126.915 163.539 125.811 162.155 124.18C160.77 122.55 160.011 120.497 160.007 118.375V109.776V109.712C160.003 109.64 160.003 109.568 160.007 109.496C160.007 109.474 160.005 109.454 160.004 109.433C160 109.393 159.996 109.354 160.007 109.312C160.017 109.274 160.03 109.236 160.042 109.199C160.05 109.175 160.058 109.151 160.064 109.128C160.081 109.072 160.105 109.008 160.13 108.952C160.154 108.896 160.187 108.84 160.219 108.785C160.231 108.765 160.248 108.745 160.265 108.725C160.295 108.689 160.325 108.653 160.325 108.617L160.447 108.473L160.594 108.321L160.635 108.273L173.417 97.2834V88.8594C173.419 87.5713 173.942 86.3365 174.871 85.4256C175.8 84.5148 177.06 84.0021 178.373 84H221.432C222.745 84.0021 224.005 84.5148 224.934 85.4256C225.863 86.3365 226.386 87.5713 226.388 88.8594V97.3154L239.203 108.273L239.243 108.321L239.39 108.473L239.513 108.617C239.553 108.673 239.586 108.729 239.618 108.785C239.625 108.796 239.632 108.808 239.639 108.819C239.665 108.862 239.689 108.902 239.708 108.952C239.717 108.975 239.72 108.998 239.724 109.02C239.73 109.06 239.736 109.1 239.773 109.136C239.83 109.192 239.83 109.256 239.83 109.32ZM177.753 88.2513C177.589 88.4128 177.495 88.6311 177.493 88.8594L177.477 96.2204H222.312V88.8594C222.31 88.6311 222.216 88.4128 222.052 88.2513C221.887 88.0899 221.664 87.9983 221.432 87.9962H178.373C178.141 87.9983 177.918 88.0899 177.753 88.2513ZM223.584 100.217H176.189L167.393 107.777H232.38L223.584 100.217ZM220.592 118.375V111.774H209.489V118.375C209.491 119.725 210.039 121.019 211.012 121.973C211.986 122.927 213.305 123.464 214.682 123.467H215.375C216.058 123.469 216.736 123.339 217.368 123.084C218.001 122.829 218.575 122.454 219.06 121.982C219.545 121.509 219.929 120.947 220.192 120.328C220.455 119.709 220.591 119.046 220.592 118.375ZM205.43 118.375V111.774H194.343V118.375C194.345 119.725 194.893 121.019 195.866 121.973C196.84 122.927 198.159 123.464 199.536 123.467H200.237C201.613 123.464 202.933 122.927 203.906 121.973C204.88 121.019 205.427 119.725 205.43 118.375ZM190.267 118.375V111.774H179.205V118.375C179.207 119.725 179.755 121.019 180.728 121.973C181.702 122.927 183.021 123.464 184.398 123.467H185.074C186.451 123.464 187.77 122.927 188.744 121.973C189.717 121.019 190.265 119.725 190.267 118.375ZM165.541 121.973C166.515 122.927 167.834 123.464 169.211 123.467H169.912C171.288 123.464 172.608 122.927 173.581 121.973C174.555 121.019 175.102 119.725 175.105 118.375V111.774H164.018V118.375C164.02 119.725 164.568 121.019 165.541 121.973ZM207.158 155.996H217.47V137.03H207.158V155.996ZM227.741 155.58C228.018 155.309 228.173 154.941 228.173 154.557L228.149 127.303C225.962 126.903 223.994 125.746 222.606 124.042C221.74 125.108 220.64 125.969 219.388 126.561C218.137 127.154 216.765 127.462 215.375 127.463H214.715C213.325 127.462 211.953 127.154 210.701 126.561C209.449 125.969 208.35 125.108 207.484 124.042C206.618 125.108 205.518 125.969 204.267 126.561C203.015 127.154 201.643 127.462 200.253 127.463H199.552C198.162 127.462 196.79 127.154 195.539 126.561C194.287 125.969 193.187 125.108 192.321 124.042C191.456 125.108 190.356 125.969 189.104 126.561C187.852 127.154 186.48 127.462 185.091 127.463H184.398C183.004 127.465 181.627 127.159 180.371 126.567C179.114 125.974 178.011 125.111 177.142 124.042C175.754 125.746 173.786 126.903 171.599 127.303V154.549C171.599 154.933 171.755 155.301 172.031 155.572C172.308 155.843 172.683 155.996 173.075 155.996H203.082V135.032C203.082 134.502 203.296 133.993 203.679 133.619C204.061 133.244 204.579 133.034 205.12 133.034H219.508C220.048 133.034 220.567 133.244 220.949 133.619C221.331 133.993 221.546 134.502 221.546 135.032V156.004H226.698C227.089 156.004 227.464 155.851 227.741 155.58ZM234.231 121.973C235.205 121.019 235.752 119.725 235.754 118.375V111.774H224.676V118.375C224.678 119.725 225.226 121.019 226.199 121.973C227.173 122.927 228.492 123.464 229.869 123.467H230.562C231.938 123.464 233.258 122.927 234.231 121.973ZM180.265 133.033H194.653C195.193 133.033 195.711 133.244 196.094 133.618C196.476 133.993 196.691 134.501 196.691 135.031V147.068C196.691 147.598 196.476 148.106 196.094 148.481C195.711 148.855 195.193 149.066 194.653 149.066H180.265C179.724 149.066 179.206 148.855 178.823 148.481C178.441 148.106 178.227 147.598 178.227 147.068V135.031C178.227 134.501 178.441 133.993 178.823 133.618C179.206 133.244 179.724 133.033 180.265 133.033ZM182.303 145.062H192.615V137.029H182.303V145.062Z" fill="#064B50"/>
</svg>